# MagicaVoxel @ Ephtracy

# group
o 

# material
mtllib Exportacion-0.mtl
usemtl palette

# normals
vn -1 0 0
vn 1 0 0
vn 0 0 1
vn 0 0 -1
vn 0 -1 0
vn 0 1 0

# texcoords
vt 0.576172 0.5
vt 0.580078 0.5

# verts
v -0.2 1.5 1.2
v -0.2 1.5 1.1
v -0.2 1.5 1
v -0.2 1.5 0.9
v -0.2 1.5 -0.6
v -0.2 1.5 -0.7
v -0.2 1.5 -0.8
v -0.2 1.5 -0.9
v -0.2 1.6 1.2
v -0.2 1.6 1.1
v -0.2 1.6 1
v -0.2 1.6 0.9
v -0.2 1.6 -0.6
v -0.2 1.6 -0.7
v -0.2 1.6 -0.8
v -0.2 1.6 -0.9
v -0.0999999 1.4 1.2
v -0.0999999 1.4 1.1
v -0.0999999 1.4 1
v -0.0999999 1.4 0.9
v -0.0999999 1.4 -0.6
v -0.0999999 1.4 -0.7
v -0.0999999 1.4 -0.8
v -0.0999999 1.4 -0.9
v -0.0999999 1.5 1.2
v -0.0999999 1.5 1.1
v -0.0999999 1.5 1
v -0.0999999 1.5 0.9
v -0.0999999 1.5 -0.6
v -0.0999999 1.5 -0.7
v -0.0999999 1.5 -0.8
v -0.0999999 1.5 -0.9
v -0.0999999 1.6 1.3
v -0.0999999 1.6 1.2
v -0.0999999 1.6 1.1
v -0.0999999 1.6 1
v -0.0999999 1.6 0.9
v -0.0999999 1.6 -0.6
v -0.0999999 1.6 -0.7
v -0.0999999 1.6 -0.8
v -0.0999999 1.6 -0.9
v -0.0999999 1.6 -1
v -0.0999999 1.7 1.3
v -0.0999999 1.7 1.1
v -0.0999999 1.7 1
v -0.0999999 1.7 0.9
v -0.0999999 1.7 -0.6
v -0.0999999 1.7 -0.7
v -0.0999999 1.7 -0.8
v -0.0999999 1.7 -1
v 5.96046e-08 1.3 1.2
v 5.96046e-08 1.3 1.1
v 5.96046e-08 1.3 1
v 5.96046e-08 1.3 0.9
v 5.96046e-08 1.3 -0.6
v 5.96046e-08 1.3 -0.7
v 5.96046e-08 1.3 -0.8
v 5.96046e-08 1.3 -0.9
v 5.96046e-08 1.4 1.2
v 5.96046e-08 1.4 1.1
v 5.96046e-08 1.4 1
v 5.96046e-08 1.4 0.9
v 5.96046e-08 1.4 -0.6
v 5.96046e-08 1.4 -0.7
v 5.96046e-08 1.4 -0.8
v 5.96046e-08 1.4 -0.9
v 5.96046e-08 1.6 1.4
v 5.96046e-08 1.6 1.3
v 5.96046e-08 1.6 -1
v 5.96046e-08 1.6 -1.1
v 5.96046e-08 1.7 1.4
v 5.96046e-08 1.7 1.3
v 5.96046e-08 1.7 1.1
v 5.96046e-08 1.7 1
v 5.96046e-08 1.7 0.9
v 5.96046e-08 1.7 -0.6
v 5.96046e-08 1.7 -0.7
v 5.96046e-08 1.7 -0.8
v 5.96046e-08 1.7 -1
v 5.96046e-08 1.7 -1.1
v 5.96046e-08 1.8 1.3
v 5.96046e-08 1.8 1.1
v 5.96046e-08 1.8 1
v 5.96046e-08 1.8 0.9
v 5.96046e-08 1.8 -0.6
v 5.96046e-08 1.8 -0.7
v 5.96046e-08 1.8 -0.8
v 5.96046e-08 1.8 -1
v 0.1 1.4 1.2
v 0.1 1.4 1.1
v 0.1 1.4 1
v 0.1 1.4 0.9
v 0.1 1.4 -0.6
v 0.1 1.4 -0.7
v 0.1 1.4 -0.8
v 0.1 1.4 -0.9
v 0.1 1.5 1.2
v 0.1 1.5 1.1
v 0.1 1.5 1
v 0.1 1.5 0.9
v 0.1 1.5 -0.6
v 0.1 1.5 -0.7
v 0.1 1.5 -0.8
v 0.1 1.5 -0.9
v 0.1 1.6 1.3
v 0.1 1.6 1.1
v 0.1 1.6 1
v 0.1 1.6 0.9
v 0.1 1.6 -0.6
v 0.1 1.6 -0.7
v 0.1 1.6 -0.8
v 0.1 1.6 -1
v 0.1 1.7 1.3
v 0.1 1.7 1.1
v 0.1 1.7 1
v 0.1 1.7 0.9
v 0.1 1.7 -0.6
v 0.1 1.7 -0.7
v 0.1 1.7 -0.8
v 0.1 1.7 -1
v 0.2 1.5 1.2
v 0.2 1.5 1.1
v 0.2 1.5 1
v 0.2 1.5 0.9
v 0.2 1.5 -0.6
v 0.2 1.5 -0.7
v 0.2 1.5 -0.8
v 0.2 1.5 -0.9
v 0.2 1.6 1.2
v 0.2 1.6 1.1
v 0.2 1.6 1
v 0.2 1.6 0.9
v 0.2 1.6 -0.6
v 0.2 1.6 -0.7
v 0.2 1.6 -0.8
v 0.2 1.6 -0.9
v -0.0999999 1.5 1.2
v -0.0999999 1.5 1.1
v -0.0999999 1.5 1
v -0.0999999 1.5 0.9
v -0.0999999 1.5 -0.6
v -0.0999999 1.5 -0.7
v -0.0999999 1.5 -0.8
v -0.0999999 1.5 -0.9
v -0.0999999 1.6 1.2
v -0.0999999 1.6 1.1
v -0.0999999 1.6 1
v -0.0999999 1.6 0.9
v -0.0999999 1.6 -0.6
v -0.0999999 1.6 -0.7
v -0.0999999 1.6 -0.8
v -0.0999999 1.6 -0.9
v 5.96046e-08 1.4 1.2
v 5.96046e-08 1.4 1.1
v 5.96046e-08 1.4 1
v 5.96046e-08 1.4 0.9
v 5.96046e-08 1.4 -0.6
v 5.96046e-08 1.4 -0.7
v 5.96046e-08 1.4 -0.8
v 5.96046e-08 1.4 -0.9
v 5.96046e-08 1.5 1.2
v 5.96046e-08 1.5 1.1
v 5.96046e-08 1.5 1
v 5.96046e-08 1.5 0.9
v 5.96046e-08 1.5 -0.6
v 5.96046e-08 1.5 -0.7
v 5.96046e-08 1.5 -0.8
v 5.96046e-08 1.5 -0.9
v 5.96046e-08 1.6 1.3
v 5.96046e-08 1.6 1.1
v 5.96046e-08 1.6 1
v 5.96046e-08 1.6 0.9
v 5.96046e-08 1.6 -0.6
v 5.96046e-08 1.6 -0.7
v 5.96046e-08 1.6 -0.8
v 5.96046e-08 1.6 -1
v 5.96046e-08 1.7 1.3
v 5.96046e-08 1.7 1.1
v 5.96046e-08 1.7 1
v 5.96046e-08 1.7 0.9
v 5.96046e-08 1.7 -0.6
v 5.96046e-08 1.7 -0.7
v 5.96046e-08 1.7 -0.8
v 5.96046e-08 1.7 -1
v 0.1 1.3 1.2
v 0.1 1.3 1.1
v 0.1 1.3 1
v 0.1 1.3 0.9
v 0.1 1.3 -0.6
v 0.1 1.3 -0.7
v 0.1 1.3 -0.8
v 0.1 1.3 -0.9
v 0.1 1.4 1.2
v 0.1 1.4 1.1
v 0.1 1.4 1
v 0.1 1.4 0.9
v 0.1 1.4 -0.6
v 0.1 1.4 -0.7
v 0.1 1.4 -0.8
v 0.1 1.4 -0.9
v 0.1 1.6 1.4
v 0.1 1.6 1.3
v 0.1 1.6 -1
v 0.1 1.6 -1.1
v 0.1 1.7 1.4
v 0.1 1.7 1.3
v 0.1 1.7 1.1
v 0.1 1.7 1
v 0.1 1.7 0.9
v 0.1 1.7 -0.6
v 0.1 1.7 -0.7
v 0.1 1.7 -0.8
v 0.1 1.7 -1
v 0.1 1.7 -1.1
v 0.1 1.8 1.3
v 0.1 1.8 1.1
v 0.1 1.8 1
v 0.1 1.8 0.9
v 0.1 1.8 -0.6
v 0.1 1.8 -0.7
v 0.1 1.8 -0.8
v 0.1 1.8 -1
v 0.2 1.4 1.2
v 0.2 1.4 1.1
v 0.2 1.4 1
v 0.2 1.4 0.9
v 0.2 1.4 -0.6
v 0.2 1.4 -0.7
v 0.2 1.4 -0.8
v 0.2 1.4 -0.9
v 0.2 1.5 1.2
v 0.2 1.5 1.1
v 0.2 1.5 1
v 0.2 1.5 0.9
v 0.2 1.5 -0.6
v 0.2 1.5 -0.7
v 0.2 1.5 -0.8
v 0.2 1.5 -0.9
v 0.2 1.6 1.3
v 0.2 1.6 1.2
v 0.2 1.6 1.1
v 0.2 1.6 1
v 0.2 1.6 0.9
v 0.2 1.6 -0.6
v 0.2 1.6 -0.7
v 0.2 1.6 -0.8
v 0.2 1.6 -0.9
v 0.2 1.6 -1
v 0.2 1.7 1.3
v 0.2 1.7 1.1
v 0.2 1.7 1
v 0.2 1.7 0.9
v 0.2 1.7 -0.6
v 0.2 1.7 -0.7
v 0.2 1.7 -0.8
v 0.2 1.7 -1
v 0.3 1.5 1.2
v 0.3 1.5 1.1
v 0.3 1.5 1
v 0.3 1.5 0.9
v 0.3 1.5 -0.6
v 0.3 1.5 -0.7
v 0.3 1.5 -0.8
v 0.3 1.5 -0.9
v 0.3 1.6 1.2
v 0.3 1.6 1.1
v 0.3 1.6 1
v 0.3 1.6 0.9
v 0.3 1.6 -0.6
v 0.3 1.6 -0.7
v 0.3 1.6 -0.8
v 0.3 1.6 -0.9
v 5.96046e-08 1.6 1.4
v 5.96046e-08 1.7 1.4
v 0.1 1.6 1.4
v 0.1 1.7 1.4
v -0.0999999 1.6 1.3
v -0.0999999 1.7 1.3
v 5.96046e-08 1.6 1.3
v 5.96046e-08 1.7 1.3
v 5.96046e-08 1.8 1.3
v 0.1 1.6 1.3
v 0.1 1.7 1.3
v 0.1 1.8 1.3
v 0.2 1.6 1.3
v 0.2 1.7 1.3
v -0.2 1.5 1.2
v -0.2 1.6 1.2
v -0.0999999 1.4 1.2
v -0.0999999 1.5 1.2
v -0.0999999 1.6 1.2
v 5.96046e-08 1.3 1.2
v 5.96046e-08 1.4 1.2
v 5.96046e-08 1.5 1.2
v 0.1 1.3 1.2
v 0.1 1.4 1.2
v 0.1 1.5 1.2
v 0.2 1.4 1.2
v 0.2 1.5 1.2
v 0.2 1.6 1.2
v 0.3 1.5 1.2
v 0.3 1.6 1.2
v -0.2 1.5 1
v -0.2 1.6 1
v -0.0999999 1.4 1
v -0.0999999 1.5 1
v -0.0999999 1.6 1
v -0.0999999 1.7 1
v 5.96046e-08 1.3 1
v 5.96046e-08 1.4 1
v 5.96046e-08 1.5 1
v 5.96046e-08 1.6 1
v 5.96046e-08 1.7 1
v 5.96046e-08 1.8 1
v 0.1 1.3 1
v 0.1 1.4 1
v 0.1 1.5 1
v 0.1 1.6 1
v 0.1 1.7 1
v 0.1 1.8 1
v 0.2 1.4 1
v 0.2 1.5 1
v 0.2 1.6 1
v 0.2 1.7 1
v 0.3 1.5 1
v 0.3 1.6 1
v -0.2 1.5 -0.6
v -0.2 1.6 -0.6
v -0.0999999 1.4 -0.6
v -0.0999999 1.5 -0.6
v -0.0999999 1.6 -0.6
v -0.0999999 1.7 -0.6
v 5.96046e-08 1.3 -0.6
v 5.96046e-08 1.4 -0.6
v 5.96046e-08 1.5 -0.6
v 5.96046e-08 1.6 -0.6
v 5.96046e-08 1.7 -0.6
v 5.96046e-08 1.8 -0.6
v 0.1 1.3 -0.6
v 0.1 1.4 -0.6
v 0.1 1.5 -0.6
v 0.1 1.6 -0.6
v 0.1 1.7 -0.6
v 0.1 1.8 -0.6
v 0.2 1.4 -0.6
v 0.2 1.5 -0.6
v 0.2 1.6 -0.6
v 0.2 1.7 -0.6
v 0.3 1.5 -0.6
v 0.3 1.6 -0.6
v -0.2 1.5 -0.8
v -0.2 1.6 -0.8
v -0.0999999 1.4 -0.8
v -0.0999999 1.5 -0.8
v -0.0999999 1.6 -0.8
v -0.0999999 1.7 -0.8
v 5.96046e-08 1.3 -0.8
v 5.96046e-08 1.4 -0.8
v 5.96046e-08 1.5 -0.8
v 5.96046e-08 1.6 -0.8
v 5.96046e-08 1.7 -0.8
v 5.96046e-08 1.8 -0.8
v 0.1 1.3 -0.8
v 0.1 1.4 -0.8
v 0.1 1.5 -0.8
v 0.1 1.6 -0.8
v 0.1 1.7 -0.8
v 0.1 1.8 -0.8
v 0.2 1.4 -0.8
v 0.2 1.5 -0.8
v 0.2 1.6 -0.8
v 0.2 1.7 -0.8
v 0.3 1.5 -0.8
v 0.3 1.6 -0.8
v 5.96046e-08 1.6 -1
v 5.96046e-08 1.7 -1
v 0.1 1.6 -1
v 0.1 1.7 -1
v 5.96046e-08 1.6 1.3
v 5.96046e-08 1.7 1.3
v 0.1 1.6 1.3
v 0.1 1.7 1.3
v -0.2 1.5 1.1
v -0.2 1.6 1.1
v -0.0999999 1.4 1.1
v -0.0999999 1.5 1.1
v -0.0999999 1.6 1.1
v -0.0999999 1.7 1.1
v 5.96046e-08 1.3 1.1
v 5.96046e-08 1.4 1.1
v 5.96046e-08 1.5 1.1
v 5.96046e-08 1.6 1.1
v 5.96046e-08 1.7 1.1
v 5.96046e-08 1.8 1.1
v 0.1 1.3 1.1
v 0.1 1.4 1.1
v 0.1 1.5 1.1
v 0.1 1.6 1.1
v 0.1 1.7 1.1
v 0.1 1.8 1.1
v 0.2 1.4 1.1
v 0.2 1.5 1.1
v 0.2 1.6 1.1
v 0.2 1.7 1.1
v 0.3 1.5 1.1
v 0.3 1.6 1.1
v -0.2 1.5 0.9
v -0.2 1.6 0.9
v -0.0999999 1.4 0.9
v -0.0999999 1.5 0.9
v -0.0999999 1.6 0.9
v -0.0999999 1.7 0.9
v 5.96046e-08 1.3 0.9
v 5.96046e-08 1.4 0.9
v 5.96046e-08 1.5 0.9
v 5.96046e-08 1.6 0.9
v 5.96046e-08 1.7 0.9
v 5.96046e-08 1.8 0.9
v 0.1 1.3 0.9
v 0.1 1.4 0.9
v 0.1 1.5 0.9
v 0.1 1.6 0.9
v 0.1 1.7 0.9
v 0.1 1.8 0.9
v 0.2 1.4 0.9
v 0.2 1.5 0.9
v 0.2 1.6 0.9
v 0.2 1.7 0.9
v 0.3 1.5 0.9
v 0.3 1.6 0.9
v -0.2 1.5 -0.7
v -0.2 1.6 -0.7
v -0.0999999 1.4 -0.7
v -0.0999999 1.5 -0.7
v -0.0999999 1.6 -0.7
v -0.0999999 1.7 -0.7
v 5.96046e-08 1.3 -0.7
v 5.96046e-08 1.4 -0.7
v 5.96046e-08 1.5 -0.7
v 5.96046e-08 1.6 -0.7
v 5.96046e-08 1.7 -0.7
v 5.96046e-08 1.8 -0.7
v 0.1 1.3 -0.7
v 0.1 1.4 -0.7
v 0.1 1.5 -0.7
v 0.1 1.6 -0.7
v 0.1 1.7 -0.7
v 0.1 1.8 -0.7
v 0.2 1.4 -0.7
v 0.2 1.5 -0.7
v 0.2 1.6 -0.7
v 0.2 1.7 -0.7
v 0.3 1.5 -0.7
v 0.3 1.6 -0.7
v -0.2 1.5 -0.9
v -0.2 1.6 -0.9
v -0.0999999 1.4 -0.9
v -0.0999999 1.5 -0.9
v -0.0999999 1.6 -0.9
v 5.96046e-08 1.3 -0.9
v 5.96046e-08 1.4 -0.9
v 5.96046e-08 1.5 -0.9
v 0.1 1.3 -0.9
v 0.1 1.4 -0.9
v 0.1 1.5 -0.9
v 0.2 1.4 -0.9
v 0.2 1.5 -0.9
v 0.2 1.6 -0.9
v 0.3 1.5 -0.9
v 0.3 1.6 -0.9
v -0.0999999 1.6 -1
v -0.0999999 1.7 -1
v 5.96046e-08 1.6 -1
v 5.96046e-08 1.7 -1
v 5.96046e-08 1.8 -1
v 0.1 1.6 -1
v 0.1 1.7 -1
v 0.1 1.8 -1
v 0.2 1.6 -1
v 0.2 1.7 -1
v 5.96046e-08 1.6 -1.1
v 5.96046e-08 1.7 -1.1
v 0.1 1.6 -1.1
v 0.1 1.7 -1.1
v 5.96046e-08 1.3 1.2
v 0.1 1.3 1.2
v 5.96046e-08 1.3 1.1
v 0.1 1.3 1.1
v 5.96046e-08 1.3 1
v 0.1 1.3 1
v 5.96046e-08 1.3 0.9
v 0.1 1.3 0.9
v 5.96046e-08 1.3 -0.6
v 0.1 1.3 -0.6
v 5.96046e-08 1.3 -0.7
v 0.1 1.3 -0.7
v 5.96046e-08 1.3 -0.8
v 0.1 1.3 -0.8
v 5.96046e-08 1.3 -0.9
v 0.1 1.3 -0.9
v -0.0999999 1.4 1.2
v 5.96046e-08 1.4 1.2
v 0.1 1.4 1.2
v 0.2 1.4 1.2
v -0.0999999 1.4 1.1
v 5.96046e-08 1.4 1.1
v 0.1 1.4 1.1
v 0.2 1.4 1.1
v -0.0999999 1.4 1
v 5.96046e-08 1.4 1
v 0.1 1.4 1
v 0.2 1.4 1
v -0.0999999 1.4 0.9
v 5.96046e-08 1.4 0.9
v 0.1 1.4 0.9
v 0.2 1.4 0.9
v -0.0999999 1.4 -0.6
v 5.96046e-08 1.4 -0.6
v 0.1 1.4 -0.6
v 0.2 1.4 -0.6
v -0.0999999 1.4 -0.7
v 5.96046e-08 1.4 -0.7
v 0.1 1.4 -0.7
v 0.2 1.4 -0.7
v -0.0999999 1.4 -0.8
v 5.96046e-08 1.4 -0.8
v 0.1 1.4 -0.8
v 0.2 1.4 -0.8
v -0.0999999 1.4 -0.9
v 5.96046e-08 1.4 -0.9
v 0.1 1.4 -0.9
v 0.2 1.4 -0.9
v -0.2 1.5 1.2
v -0.0999999 1.5 1.2
v 0.2 1.5 1.2
v 0.3 1.5 1.2
v -0.2 1.5 1.1
v -0.0999999 1.5 1.1
v 0.2 1.5 1.1
v 0.3 1.5 1.1
v -0.2 1.5 1
v -0.0999999 1.5 1
v 0.2 1.5 1
v 0.3 1.5 1
v -0.2 1.5 0.9
v -0.0999999 1.5 0.9
v 0.2 1.5 0.9
v 0.3 1.5 0.9
v -0.2 1.5 -0.6
v -0.0999999 1.5 -0.6
v 0.2 1.5 -0.6
v 0.3 1.5 -0.6
v -0.2 1.5 -0.7
v -0.0999999 1.5 -0.7
v 0.2 1.5 -0.7
v 0.3 1.5 -0.7
v -0.2 1.5 -0.8
v -0.0999999 1.5 -0.8
v 0.2 1.5 -0.8
v 0.3 1.5 -0.8
v -0.2 1.5 -0.9
v -0.0999999 1.5 -0.9
v 0.2 1.5 -0.9
v 0.3 1.5 -0.9
v 5.96046e-08 1.6 1.4
v 0.1 1.6 1.4
v -0.0999999 1.6 1.3
v 5.96046e-08 1.6 1.3
v 0.1 1.6 1.3
v 0.2 1.6 1.3
v -0.0999999 1.6 1.2
v 0.2 1.6 1.2
v -0.0999999 1.6 1.1
v 5.96046e-08 1.6 1.1
v 0.1 1.6 1.1
v 0.2 1.6 1.1
v -0.0999999 1.6 1
v 5.96046e-08 1.6 1
v 0.1 1.6 1
v 0.2 1.6 1
v -0.0999999 1.6 0.9
v 5.96046e-08 1.6 0.9
v 0.1 1.6 0.9
v 0.2 1.6 0.9
v -0.0999999 1.6 -0.6
v 5.96046e-08 1.6 -0.6
v 0.1 1.6 -0.6
v 0.2 1.6 -0.6
v -0.0999999 1.6 -0.7
v 5.96046e-08 1.6 -0.7
v 0.1 1.6 -0.7
v 0.2 1.6 -0.7
v -0.0999999 1.6 -0.8
v 5.96046e-08 1.6 -0.8
v 0.1 1.6 -0.8
v 0.2 1.6 -0.8
v -0.0999999 1.6 -0.9
v 0.2 1.6 -0.9
v -0.0999999 1.6 -1
v 5.96046e-08 1.6 -1
v 0.1 1.6 -1
v 0.2 1.6 -1
v 5.96046e-08 1.6 -1.1
v 0.1 1.6 -1.1
v 5.96046e-08 1.7 1.3
v 0.1 1.7 1.3
v 5.96046e-08 1.7 1.1
v 0.1 1.7 1.1
v 5.96046e-08 1.7 1
v 0.1 1.7 1
v 5.96046e-08 1.7 0.9
v 0.1 1.7 0.9
v 5.96046e-08 1.7 -0.6
v 0.1 1.7 -0.6
v 5.96046e-08 1.7 -0.7
v 0.1 1.7 -0.7
v 5.96046e-08 1.7 -0.8
v 0.1 1.7 -0.8
v 5.96046e-08 1.7 -1
v 0.1 1.7 -1
v 5.96046e-08 1.4 1.2
v 0.1 1.4 1.2
v 5.96046e-08 1.4 1.1
v 0.1 1.4 1.1
v 5.96046e-08 1.4 1
v 0.1 1.4 1
v 5.96046e-08 1.4 0.9
v 0.1 1.4 0.9
v 5.96046e-08 1.4 -0.6
v 0.1 1.4 -0.6
v 5.96046e-08 1.4 -0.7
v 0.1 1.4 -0.7
v 5.96046e-08 1.4 -0.8
v 0.1 1.4 -0.8
v 5.96046e-08 1.4 -0.9
v 0.1 1.4 -0.9
v -0.0999999 1.5 1.2
v 5.96046e-08 1.5 1.2
v 0.1 1.5 1.2
v 0.2 1.5 1.2
v -0.0999999 1.5 1.1
v 5.96046e-08 1.5 1.1
v 0.1 1.5 1.1
v 0.2 1.5 1.1
v -0.0999999 1.5 1
v 5.96046e-08 1.5 1
v 0.1 1.5 1
v 0.2 1.5 1
v -0.0999999 1.5 0.9
v 5.96046e-08 1.5 0.9
v 0.1 1.5 0.9
v 0.2 1.5 0.9
v -0.0999999 1.5 -0.6
v 5.96046e-08 1.5 -0.6
v 0.1 1.5 -0.6
v 0.2 1.5 -0.6
v -0.0999999 1.5 -0.7
v 5.96046e-08 1.5 -0.7
v 0.1 1.5 -0.7
v 0.2 1.5 -0.7
v -0.0999999 1.5 -0.8
v 5.96046e-08 1.5 -0.8
v 0.1 1.5 -0.8
v 0.2 1.5 -0.8
v -0.0999999 1.5 -0.9
v 5.96046e-08 1.5 -0.9
v 0.1 1.5 -0.9
v 0.2 1.5 -0.9
v -0.2 1.6 1.2
v -0.0999999 1.6 1.2
v 0.2 1.6 1.2
v 0.3 1.6 1.2
v -0.2 1.6 1.1
v -0.0999999 1.6 1.1
v 0.2 1.6 1.1
v 0.3 1.6 1.1
v -0.2 1.6 1
v -0.0999999 1.6 1
v 0.2 1.6 1
v 0.3 1.6 1
v -0.2 1.6 0.9
v -0.0999999 1.6 0.9
v 0.2 1.6 0.9
v 0.3 1.6 0.9
v -0.2 1.6 -0.6
v -0.0999999 1.6 -0.6
v 0.2 1.6 -0.6
v 0.3 1.6 -0.6
v -0.2 1.6 -0.7
v -0.0999999 1.6 -0.7
v 0.2 1.6 -0.7
v 0.3 1.6 -0.7
v -0.2 1.6 -0.8
v -0.0999999 1.6 -0.8
v 0.2 1.6 -0.8
v 0.3 1.6 -0.8
v -0.2 1.6 -0.9
v -0.0999999 1.6 -0.9
v 0.2 1.6 -0.9
v 0.3 1.6 -0.9
v 5.96046e-08 1.7 1.4
v 0.1 1.7 1.4
v -0.0999999 1.7 1.3
v 5.96046e-08 1.7 1.3
v 0.1 1.7 1.3
v 0.2 1.7 1.3
v -0.0999999 1.7 1.1
v 5.96046e-08 1.7 1.1
v 0.1 1.7 1.1
v 0.2 1.7 1.1
v -0.0999999 1.7 1
v 5.96046e-08 1.7 1
v 0.1 1.7 1
v 0.2 1.7 1
v -0.0999999 1.7 0.9
v 5.96046e-08 1.7 0.9
v 0.1 1.7 0.9
v 0.2 1.7 0.9
v -0.0999999 1.7 -0.6
v 5.96046e-08 1.7 -0.6
v 0.1 1.7 -0.6
v 0.2 1.7 -0.6
v -0.0999999 1.7 -0.7
v 5.96046e-08 1.7 -0.7
v 0.1 1.7 -0.7
v 0.2 1.7 -0.7
v -0.0999999 1.7 -0.8
v 5.96046e-08 1.7 -0.8
v 0.1 1.7 -0.8
v 0.2 1.7 -0.8
v -0.0999999 1.7 -1
v 5.96046e-08 1.7 -1
v 0.1 1.7 -1
v 0.2 1.7 -1
v 5.96046e-08 1.7 -1.1
v 0.1 1.7 -1.1
v 5.96046e-08 1.8 1.3
v 0.1 1.8 1.3
v 5.96046e-08 1.8 1.1
v 0.1 1.8 1.1
v 5.96046e-08 1.8 1
v 0.1 1.8 1
v 5.96046e-08 1.8 0.9
v 0.1 1.8 0.9
v 5.96046e-08 1.8 -0.6
v 0.1 1.8 -0.6
v 5.96046e-08 1.8 -0.7
v 0.1 1.8 -0.7
v 5.96046e-08 1.8 -0.8
v 0.1 1.8 -0.8
v 5.96046e-08 1.8 -1
v 0.1 1.8 -1

# faces
f 9/1/1 2/1/1 1/1/1
f 10/1/1 2/1/1 9/1/1
f 11/1/1 4/1/1 3/1/1
f 12/1/1 4/1/1 11/1/1
f 13/1/1 6/1/1 5/1/1
f 14/1/1 6/1/1 13/1/1
f 15/1/1 8/1/1 7/1/1
f 16/1/1 8/1/1 15/1/1
f 25/2/1 18/2/1 17/2/1
f 26/2/1 18/2/1 25/2/1
f 27/2/1 20/2/1 19/2/1
f 28/2/1 20/2/1 27/2/1
f 29/2/1 22/2/1 21/2/1
f 30/2/1 22/2/1 29/2/1
f 31/2/1 24/2/1 23/2/1
f 32/2/1 24/2/1 31/2/1
f 43/1/1 34/1/1 33/1/1
f 43/1/1 35/1/1 34/1/1
f 44/1/1 35/1/1 43/1/1
f 45/1/1 37/1/1 36/1/1
f 46/1/1 37/1/1 45/1/1
f 47/1/1 39/1/1 38/1/1
f 48/1/1 39/1/1 47/1/1
f 49/1/1 41/1/1 40/1/1
f 49/1/1 42/1/1 41/1/1
f 50/1/1 42/1/1 49/1/1
f 59/2/1 52/2/1 51/2/1
f 60/2/1 52/2/1 59/2/1
f 61/2/1 54/2/1 53/2/1
f 62/2/1 54/2/1 61/2/1
f 63/2/1 56/2/1 55/2/1
f 64/2/1 56/2/1 63/2/1
f 65/2/1 58/2/1 57/2/1
f 66/2/1 58/2/1 65/2/1
f 71/1/1 68/1/1 67/1/1
f 72/1/1 68/1/1 71/1/1
f 79/1/1 70/1/1 69/1/1
f 80/1/1 70/1/1 79/1/1
f 81/1/1 73/1/1 72/1/1
f 82/1/1 73/1/1 81/1/1
f 83/1/1 75/1/1 74/1/1
f 84/1/1 75/1/1 83/1/1
f 85/1/1 77/1/1 76/1/1
f 86/1/1 77/1/1 85/1/1
f 87/1/1 79/1/1 78/1/1
f 88/1/1 79/1/1 87/1/1
f 97/2/1 90/2/1 89/2/1
f 98/2/1 90/2/1 97/2/1
f 99/2/1 92/2/1 91/2/1
f 100/2/1 92/2/1 99/2/1
f 101/2/1 94/2/1 93/2/1
f 102/2/1 94/2/1 101/2/1
f 103/2/1 96/2/1 95/2/1
f 104/2/1 96/2/1 103/2/1
f 113/1/1 106/1/1 105/1/1
f 114/1/1 106/1/1 113/1/1
f 115/1/1 108/1/1 107/1/1
f 116/1/1 108/1/1 115/1/1
f 117/1/1 110/1/1 109/1/1
f 118/1/1 110/1/1 117/1/1
f 119/1/1 112/1/1 111/1/1
f 120/1/1 112/1/1 119/1/1
f 129/1/1 122/1/1 121/1/1
f 130/1/1 122/1/1 129/1/1
f 131/1/1 124/1/1 123/1/1
f 132/1/1 124/1/1 131/1/1
f 133/1/1 126/1/1 125/1/1
f 134/1/1 126/1/1 133/1/1
f 135/1/1 128/1/1 127/1/1
f 136/1/1 128/1/1 135/1/1
f 137/1/2 138/1/2 145/1/2
f 145/1/2 138/1/2 146/1/2
f 139/1/2 140/1/2 147/1/2
f 147/1/2 140/1/2 148/1/2
f 141/1/2 142/1/2 149/1/2
f 149/1/2 142/1/2 150/1/2
f 143/1/2 144/1/2 151/1/2
f 151/1/2 144/1/2 152/1/2
f 153/2/2 154/2/2 161/2/2
f 161/2/2 154/2/2 162/2/2
f 155/2/2 156/2/2 163/2/2
f 163/2/2 156/2/2 164/2/2
f 157/2/2 158/2/2 165/2/2
f 165/2/2 158/2/2 166/2/2
f 159/2/2 160/2/2 167/2/2
f 167/2/2 160/2/2 168/2/2
f 169/1/2 170/1/2 177/1/2
f 177/1/2 170/1/2 178/1/2
f 171/1/2 172/1/2 179/1/2
f 179/1/2 172/1/2 180/1/2
f 173/1/2 174/1/2 181/1/2
f 181/1/2 174/1/2 182/1/2
f 175/1/2 176/1/2 183/1/2
f 183/1/2 176/1/2 184/1/2
f 185/2/2 186/2/2 193/2/2
f 193/2/2 186/2/2 194/2/2
f 187/2/2 188/2/2 195/2/2
f 195/2/2 188/2/2 196/2/2
f 189/2/2 190/2/2 197/2/2
f 197/2/2 190/2/2 198/2/2
f 191/2/2 192/2/2 199/2/2
f 199/2/2 192/2/2 200/2/2
f 201/1/2 202/1/2 205/1/2
f 205/1/2 202/1/2 206/1/2
f 203/1/2 204/1/2 213/1/2
f 213/1/2 204/1/2 214/1/2
f 206/1/2 207/1/2 215/1/2
f 215/1/2 207/1/2 216/1/2
f 208/1/2 209/1/2 217/1/2
f 217/1/2 209/1/2 218/1/2
f 210/1/2 211/1/2 219/1/2
f 219/1/2 211/1/2 220/1/2
f 212/1/2 213/1/2 221/1/2
f 221/1/2 213/1/2 222/1/2
f 223/2/2 224/2/2 231/2/2
f 231/2/2 224/2/2 232/2/2
f 225/2/2 226/2/2 233/2/2
f 233/2/2 226/2/2 234/2/2
f 227/2/2 228/2/2 235/2/2
f 235/2/2 228/2/2 236/2/2
f 229/2/2 230/2/2 237/2/2
f 237/2/2 230/2/2 238/2/2
f 239/1/2 240/1/2 249/1/2
f 240/1/2 241/1/2 249/1/2
f 249/1/2 241/1/2 250/1/2
f 242/1/2 243/1/2 251/1/2
f 251/1/2 243/1/2 252/1/2
f 244/1/2 245/1/2 253/1/2
f 253/1/2 245/1/2 254/1/2
f 246/1/2 247/1/2 255/1/2
f 247/1/2 248/1/2 255/1/2
f 255/1/2 248/1/2 256/1/2
f 257/1/2 258/1/2 265/1/2
f 265/1/2 258/1/2 266/1/2
f 259/1/2 260/1/2 267/1/2
f 267/1/2 260/1/2 268/1/2
f 261/1/2 262/1/2 269/1/2
f 269/1/2 262/1/2 270/1/2
f 263/1/2 264/1/2 271/1/2
f 271/1/2 264/1/2 272/1/2
f 275/1/3 274/1/3 273/1/3
f 276/1/3 274/1/3 275/1/3
f 279/1/3 278/1/3 277/1/3
f 280/1/3 278/1/3 279/1/3
f 283/1/3 281/1/3 280/1/3
f 284/1/3 281/1/3 283/1/3
f 285/1/3 283/1/3 282/1/3
f 286/1/3 283/1/3 285/1/3
f 290/1/3 288/1/3 287/1/3
f 291/1/3 288/1/3 290/1/3
f 293/2/3 290/2/3 289/2/3
f 294/2/3 290/2/3 293/2/3
f 295/2/3 293/2/3 292/2/3
f 296/2/3 293/2/3 295/2/3
f 298/2/3 297/2/3 296/2/3
f 299/2/3 297/2/3 298/2/3
f 301/1/3 300/1/3 299/1/3
f 302/1/3 300/1/3 301/1/3
f 306/1/3 304/1/3 303/1/3
f 307/1/3 304/1/3 306/1/3
f 310/2/3 306/2/3 305/2/3
f 311/2/3 306/2/3 310/2/3
f 312/1/3 308/1/3 307/1/3
f 313/1/3 308/1/3 312/1/3
f 315/2/3 310/2/3 309/2/3
f 316/2/3 310/2/3 315/2/3
f 319/1/3 314/1/3 313/1/3
f 320/1/3 314/1/3 319/1/3
f 321/2/3 317/2/3 316/2/3
f 322/2/3 317/2/3 321/2/3
f 323/1/3 319/1/3 318/1/3
f 324/1/3 319/1/3 323/1/3
f 325/1/3 323/1/3 322/1/3
f 326/1/3 323/1/3 325/1/3
f 330/1/3 328/1/3 327/1/3
f 331/1/3 328/1/3 330/1/3
f 334/2/3 330/2/3 329/2/3
f 335/2/3 330/2/3 334/2/3
f 336/1/3 332/1/3 331/1/3
f 337/1/3 332/1/3 336/1/3
f 339/2/3 334/2/3 333/2/3
f 340/2/3 334/2/3 339/2/3
f 343/1/3 338/1/3 337/1/3
f 344/1/3 338/1/3 343/1/3
f 345/2/3 341/2/3 340/2/3
f 346/2/3 341/2/3 345/2/3
f 347/1/3 343/1/3 342/1/3
f 348/1/3 343/1/3 347/1/3
f 349/1/3 347/1/3 346/1/3
f 350/1/3 347/1/3 349/1/3
f 354/1/3 352/1/3 351/1/3
f 355/1/3 352/1/3 354/1/3
f 358/2/3 354/2/3 353/2/3
f 359/2/3 354/2/3 358/2/3
f 360/1/3 356/1/3 355/1/3
f 361/1/3 356/1/3 360/1/3
f 363/2/3 358/2/3 357/2/3
f 364/2/3 358/2/3 363/2/3
f 367/1/3 362/1/3 361/1/3
f 368/1/3 362/1/3 367/1/3
f 369/2/3 365/2/3 364/2/3
f 370/2/3 365/2/3 369/2/3
f 371/1/3 367/1/3 366/1/3
f 372/1/3 367/1/3 371/1/3
f 373/1/3 371/1/3 370/1/3
f 374/1/3 371/1/3 373/1/3
f 377/1/3 376/1/3 375/1/3
f 378/1/3 376/1/3 377/1/3
f 379/1/4 380/1/4 381/1/4
f 381/1/4 380/1/4 382/1/4
f 383/1/4 384/1/4 386/1/4
f 386/1/4 384/1/4 387/1/4
f 385/2/4 386/2/4 390/2/4
f 390/2/4 386/2/4 391/2/4
f 387/1/4 388/1/4 392/1/4
f 392/1/4 388/1/4 393/1/4
f 389/2/4 390/2/4 395/2/4
f 395/2/4 390/2/4 396/2/4
f 393/1/4 394/1/4 399/1/4
f 399/1/4 394/1/4 400/1/4
f 396/2/4 397/2/4 401/2/4
f 401/2/4 397/2/4 402/2/4
f 398/1/4 399/1/4 403/1/4
f 403/1/4 399/1/4 404/1/4
f 402/1/4 403/1/4 405/1/4
f 405/1/4 403/1/4 406/1/4
f 407/1/4 408/1/4 410/1/4
f 410/1/4 408/1/4 411/1/4
f 409/2/4 410/2/4 414/2/4
f 414/2/4 410/2/4 415/2/4
f 411/1/4 412/1/4 416/1/4
f 416/1/4 412/1/4 417/1/4
f 413/2/4 414/2/4 419/2/4
f 419/2/4 414/2/4 420/2/4
f 417/1/4 418/1/4 423/1/4
f 423/1/4 418/1/4 424/1/4
f 420/2/4 421/2/4 425/2/4
f 425/2/4 421/2/4 426/2/4
f 422/1/4 423/1/4 427/1/4
f 427/1/4 423/1/4 428/1/4
f 426/1/4 427/1/4 429/1/4
f 429/1/4 427/1/4 430/1/4
f 431/1/4 432/1/4 434/1/4
f 434/1/4 432/1/4 435/1/4
f 433/2/4 434/2/4 438/2/4
f 438/2/4 434/2/4 439/2/4
f 435/1/4 436/1/4 440/1/4
f 440/1/4 436/1/4 441/1/4
f 437/2/4 438/2/4 443/2/4
f 443/2/4 438/2/4 444/2/4
f 441/1/4 442/1/4 447/1/4
f 447/1/4 442/1/4 448/1/4
f 444/2/4 445/2/4 449/2/4
f 449/2/4 445/2/4 450/2/4
f 446/1/4 447/1/4 451/1/4
f 451/1/4 447/1/4 452/1/4
f 450/1/4 451/1/4 453/1/4
f 453/1/4 451/1/4 454/1/4
f 455/1/4 456/1/4 458/1/4
f 458/1/4 456/1/4 459/1/4
f 457/2/4 458/2/4 461/2/4
f 461/2/4 458/2/4 462/2/4
f 460/2/4 461/2/4 463/2/4
f 463/2/4 461/2/4 464/2/4
f 464/2/4 465/2/4 466/2/4
f 466/2/4 465/2/4 467/2/4
f 467/1/4 468/1/4 469/1/4
f 469/1/4 468/1/4 470/1/4
f 471/1/4 472/1/4 473/1/4
f 473/1/4 472/1/4 474/1/4
f 474/1/4 475/1/4 477/1/4
f 477/1/4 475/1/4 478/1/4
f 476/1/4 477/1/4 479/1/4
f 479/1/4 477/1/4 480/1/4
f 481/1/4 482/1/4 483/1/4
f 483/1/4 482/1/4 484/1/4
f 487/2/5 486/2/5 485/2/5
f 488/2/5 486/2/5 487/2/5
f 491/2/5 490/2/5 489/2/5
f 492/2/5 490/2/5 491/2/5
f 495/2/5 494/2/5 493/2/5
f 496/2/5 494/2/5 495/2/5
f 499/2/5 498/2/5 497/2/5
f 500/2/5 498/2/5 499/2/5
f 505/2/5 502/2/5 501/2/5
f 506/2/5 502/2/5 505/2/5
f 507/2/5 504/2/5 503/2/5
f 508/2/5 504/2/5 507/2/5
f 513/2/5 510/2/5 509/2/5
f 514/2/5 510/2/5 513/2/5
f 515/2/5 512/2/5 511/2/5
f 516/2/5 512/2/5 515/2/5
f 521/2/5 518/2/5 517/2/5
f 522/2/5 518/2/5 521/2/5
f 523/2/5 520/2/5 519/2/5
f 524/2/5 520/2/5 523/2/5
f 529/2/5 526/2/5 525/2/5
f 530/2/5 526/2/5 529/2/5
f 531/2/5 528/2/5 527/2/5
f 532/2/5 528/2/5 531/2/5
f 537/1/5 534/1/5 533/1/5
f 538/1/5 534/1/5 537/1/5
f 539/1/5 536/1/5 535/1/5
f 540/1/5 536/1/5 539/1/5
f 545/1/5 542/1/5 541/1/5
f 546/1/5 542/1/5 545/1/5
f 547/1/5 544/1/5 543/1/5
f 548/1/5 544/1/5 547/1/5
f 553/1/5 550/1/5 549/1/5
f 554/1/5 550/1/5 553/1/5
f 555/1/5 552/1/5 551/1/5
f 556/1/5 552/1/5 555/1/5
f 561/1/5 558/1/5 557/1/5
f 562/1/5 558/1/5 561/1/5
f 563/1/5 560/1/5 559/1/5
f 564/1/5 560/1/5 563/1/5
f 568/1/5 566/1/5 565/1/5
f 569/1/5 566/1/5 568/1/5
f 571/1/5 568/1/5 567/1/5
f 572/1/5 570/1/5 569/1/5
f 573/1/5 568/1/5 571/1/5
f 574/1/5 568/1/5 573/1/5
f 575/1/5 572/1/5 569/1/5
f 576/1/5 572/1/5 575/1/5
f 581/1/5 578/1/5 577/1/5
f 582/1/5 578/1/5 581/1/5
f 583/1/5 580/1/5 579/1/5
f 584/1/5 580/1/5 583/1/5
f 589/1/5 586/1/5 585/1/5
f 590/1/5 586/1/5 589/1/5
f 591/1/5 588/1/5 587/1/5
f 592/1/5 588/1/5 591/1/5
f 597/1/5 594/1/5 593/1/5
f 598/1/5 596/1/5 595/1/5
f 599/1/5 594/1/5 597/1/5
f 600/1/5 594/1/5 599/1/5
f 601/1/5 598/1/5 595/1/5
f 602/1/5 598/1/5 601/1/5
f 603/1/5 601/1/5 600/1/5
f 604/1/5 601/1/5 603/1/5
f 607/1/5 606/1/5 605/1/5
f 608/1/5 606/1/5 607/1/5
f 611/1/5 610/1/5 609/1/5
f 612/1/5 610/1/5 611/1/5
f 615/1/5 614/1/5 613/1/5
f 616/1/5 614/1/5 615/1/5
f 619/1/5 618/1/5 617/1/5
f 620/1/5 618/1/5 619/1/5
f 621/2/6 622/2/6 623/2/6
f 623/2/6 622/2/6 624/2/6
f 625/2/6 626/2/6 627/2/6
f 627/2/6 626/2/6 628/2/6
f 629/2/6 630/2/6 631/2/6
f 631/2/6 630/2/6 632/2/6
f 633/2/6 634/2/6 635/2/6
f 635/2/6 634/2/6 636/2/6
f 637/2/6 638/2/6 641/2/6
f 641/2/6 638/2/6 642/2/6
f 639/2/6 640/2/6 643/2/6
f 643/2/6 640/2/6 644/2/6
f 645/2/6 646/2/6 649/2/6
f 649/2/6 646/2/6 650/2/6
f 647/2/6 648/2/6 651/2/6
f 651/2/6 648/2/6 652/2/6
f 653/2/6 654/2/6 657/2/6
f 657/2/6 654/2/6 658/2/6
f 655/2/6 656/2/6 659/2/6
f 659/2/6 656/2/6 660/2/6
f 661/2/6 662/2/6 665/2/6
f 665/2/6 662/2/6 666/2/6
f 663/2/6 664/2/6 667/2/6
f 667/2/6 664/2/6 668/2/6
f 669/1/6 670/1/6 673/1/6
f 673/1/6 670/1/6 674/1/6
f 671/1/6 672/1/6 675/1/6
f 675/1/6 672/1/6 676/1/6
f 677/1/6 678/1/6 681/1/6
f 681/1/6 678/1/6 682/1/6
f 679/1/6 680/1/6 683/1/6
f 683/1/6 680/1/6 684/1/6
f 685/1/6 686/1/6 689/1/6
f 689/1/6 686/1/6 690/1/6
f 687/1/6 688/1/6 691/1/6
f 691/1/6 688/1/6 692/1/6
f 693/1/6 694/1/6 697/1/6
f 697/1/6 694/1/6 698/1/6
f 695/1/6 696/1/6 699/1/6
f 699/1/6 696/1/6 700/1/6
f 701/1/6 702/1/6 704/1/6
f 704/1/6 702/1/6 705/1/6
f 703/1/6 704/1/6 707/1/6
f 707/1/6 704/1/6 708/1/6
f 705/1/6 706/1/6 709/1/6
f 709/1/6 706/1/6 710/1/6
f 711/1/6 712/1/6 715/1/6
f 715/1/6 712/1/6 716/1/6
f 713/1/6 714/1/6 717/1/6
f 717/1/6 714/1/6 718/1/6
f 719/1/6 720/1/6 723/1/6
f 723/1/6 720/1/6 724/1/6
f 721/1/6 722/1/6 725/1/6
f 725/1/6 722/1/6 726/1/6
f 727/1/6 728/1/6 731/1/6
f 731/1/6 728/1/6 732/1/6
f 729/1/6 730/1/6 733/1/6
f 733/1/6 730/1/6 734/1/6
f 732/1/6 733/1/6 735/1/6
f 735/1/6 733/1/6 736/1/6
f 737/1/6 738/1/6 739/1/6
f 739/1/6 738/1/6 740/1/6
f 741/1/6 742/1/6 743/1/6
f 743/1/6 742/1/6 744/1/6
f 745/1/6 746/1/6 747/1/6
f 747/1/6 746/1/6 748/1/6
f 749/1/6 750/1/6 751/1/6
f 751/1/6 750/1/6 752/1/6
