# MagicaVoxel @ Ephtracy

# group
o 

# material
mtllib Exportacion-4.mtl
usemtl palette

# normals
vn -1 0 0
vn 1 0 0
vn 0 0 1
vn 0 0 -1
vn 0 -1 0
vn 0 1 0

# texcoords
vt 0.693359 0.5
vt 0.728516 0.5
vt 0.732422 0.5
vt 0.748047 0.5

# verts
v -0.2 1.5 1.1
v -0.2 1.5 1
v -0.2 1.5 0.9
v -0.2 1.5 -0.6
v -0.2 1.5 -0.7
v -0.2 1.5 -0.8
v -0.2 1.6 1.1
v -0.2 1.6 1
v -0.2 1.6 0.9
v -0.2 1.6 -0.6
v -0.2 1.6 -0.7
v -0.2 1.6 -0.8
v -0.0999999 1.4 1.1
v -0.0999999 1.4 1
v -0.0999999 1.4 0.9
v -0.0999999 1.4 -0.6
v -0.0999999 1.4 -0.7
v -0.0999999 1.4 -0.8
v -0.0999999 1.5 1.1
v -0.0999999 1.5 1
v -0.0999999 1.5 0.9
v -0.0999999 1.5 -0.6
v -0.0999999 1.5 -0.7
v -0.0999999 1.5 -0.8
v -0.0999999 1.6 1.5
v -0.0999999 1.6 1.3
v -0.0999999 1.6 1.2
v -0.0999999 1.6 1.1
v -0.0999999 1.6 1
v -0.0999999 1.6 0.9
v -0.0999999 1.6 -0.6
v -0.0999999 1.6 -0.7
v -0.0999999 1.6 -0.8
v -0.0999999 1.7 1.5
v -0.0999999 1.7 1.3
v -0.0999999 1.7 1.2
v -0.0999999 1.7 1.1
v -0.0999999 1.7 0.9
v -0.0999999 1.7 -0.6
v -0.0999999 1.7 -0.7
v -0.0999999 1.7 -0.8
v 5.96046e-08 1.3 1.1
v 5.96046e-08 1.3 1
v 5.96046e-08 1.3 0.9
v 5.96046e-08 1.3 -0.6
v 5.96046e-08 1.3 -0.7
v 5.96046e-08 1.3 -0.8
v 5.96046e-08 1.4 1.1
v 5.96046e-08 1.4 1
v 5.96046e-08 1.4 0.9
v 5.96046e-08 1.4 -0.6
v 5.96046e-08 1.4 -0.7
v 5.96046e-08 1.4 -0.8
v 5.96046e-08 1.6 1.6
v 5.96046e-08 1.6 1.5
v 5.96046e-08 1.7 1.6
v 5.96046e-08 1.7 1.5
v 5.96046e-08 1.7 1.3
v 5.96046e-08 1.7 1.2
v 5.96046e-08 1.7 1.1
v 5.96046e-08 1.7 0.9
v 5.96046e-08 1.7 -0.6
v 5.96046e-08 1.7 -0.7
v 5.96046e-08 1.7 -0.8
v 5.96046e-08 1.8 1.3
v 5.96046e-08 1.8 1.2
v 5.96046e-08 1.8 0.9
v 5.96046e-08 1.8 -0.6
v 5.96046e-08 1.8 -0.7
v 5.96046e-08 1.8 -0.8
v 0.1 1.4 1.1
v 0.1 1.4 1
v 0.1 1.4 0.9
v 0.1 1.4 -0.6
v 0.1 1.4 -0.7
v 0.1 1.4 -0.8
v 0.1 1.5 1.1
v 0.1 1.5 1
v 0.1 1.5 0.9
v 0.1 1.5 -0.6
v 0.1 1.5 -0.7
v 0.1 1.5 -0.8
v 0.1 1.6 1.3
v 0.1 1.6 1.2
v 0.1 1.6 1.1
v 0.1 1.6 0.9
v 0.1 1.6 -0.6
v 0.1 1.6 -0.7
v 0.1 1.6 -0.8
v 0.1 1.7 1.3
v 0.1 1.7 1.2
v 0.1 1.7 1.1
v 0.1 1.7 0.9
v 0.1 1.7 -0.6
v 0.1 1.7 -0.7
v 0.1 1.7 -0.8
v 0.2 1.5 1.1
v 0.2 1.5 1
v 0.2 1.5 0.9
v 0.2 1.5 -0.6
v 0.2 1.5 -0.7
v 0.2 1.5 -0.8
v 0.2 1.6 1.1
v 0.2 1.6 1
v 0.2 1.6 0.9
v 0.2 1.6 -0.6
v 0.2 1.6 -0.7
v 0.2 1.6 -0.8
v -0.0999999 1.5 1.1
v -0.0999999 1.5 1
v -0.0999999 1.5 0.9
v -0.0999999 1.5 -0.6
v -0.0999999 1.5 -0.7
v -0.0999999 1.5 -0.8
v -0.0999999 1.6 1.1
v -0.0999999 1.6 1
v -0.0999999 1.6 0.9
v -0.0999999 1.6 -0.6
v -0.0999999 1.6 -0.7
v -0.0999999 1.6 -0.8
v 5.96046e-08 1.4 1.1
v 5.96046e-08 1.4 1
v 5.96046e-08 1.4 0.9
v 5.96046e-08 1.4 -0.6
v 5.96046e-08 1.4 -0.7
v 5.96046e-08 1.4 -0.8
v 5.96046e-08 1.5 1.1
v 5.96046e-08 1.5 1
v 5.96046e-08 1.5 0.9
v 5.96046e-08 1.5 -0.6
v 5.96046e-08 1.5 -0.7
v 5.96046e-08 1.5 -0.8
v 5.96046e-08 1.6 1.3
v 5.96046e-08 1.6 1.2
v 5.96046e-08 1.6 1.1
v 5.96046e-08 1.6 0.9
v 5.96046e-08 1.6 -0.6
v 5.96046e-08 1.6 -0.7
v 5.96046e-08 1.6 -0.8
v 5.96046e-08 1.7 1.3
v 5.96046e-08 1.7 1.2
v 5.96046e-08 1.7 1.1
v 5.96046e-08 1.7 0.9
v 5.96046e-08 1.7 -0.6
v 5.96046e-08 1.7 -0.7
v 5.96046e-08 1.7 -0.8
v 0.1 1.3 1.1
v 0.1 1.3 1
v 0.1 1.3 0.9
v 0.1 1.3 -0.6
v 0.1 1.3 -0.7
v 0.1 1.3 -0.8
v 0.1 1.4 1.1
v 0.1 1.4 1
v 0.1 1.4 0.9
v 0.1 1.4 -0.6
v 0.1 1.4 -0.7
v 0.1 1.4 -0.8
v 0.1 1.6 1.6
v 0.1 1.6 1.5
v 0.1 1.7 1.6
v 0.1 1.7 1.5
v 0.1 1.7 1.3
v 0.1 1.7 1.2
v 0.1 1.7 1.1
v 0.1 1.7 0.9
v 0.1 1.7 -0.6
v 0.1 1.7 -0.7
v 0.1 1.7 -0.8
v 0.1 1.8 1.3
v 0.1 1.8 1.2
v 0.1 1.8 0.9
v 0.1 1.8 -0.6
v 0.1 1.8 -0.7
v 0.1 1.8 -0.8
v 0.2 1.4 1.1
v 0.2 1.4 1
v 0.2 1.4 0.9
v 0.2 1.4 -0.6
v 0.2 1.4 -0.7
v 0.2 1.4 -0.8
v 0.2 1.5 1.1
v 0.2 1.5 1
v 0.2 1.5 0.9
v 0.2 1.5 -0.6
v 0.2 1.5 -0.7
v 0.2 1.5 -0.8
v 0.2 1.6 1.5
v 0.2 1.6 1.3
v 0.2 1.6 1.2
v 0.2 1.6 1.1
v 0.2 1.6 1
v 0.2 1.6 0.9
v 0.2 1.6 -0.6
v 0.2 1.6 -0.7
v 0.2 1.6 -0.8
v 0.2 1.7 1.5
v 0.2 1.7 1.3
v 0.2 1.7 1.2
v 0.2 1.7 1.1
v 0.2 1.7 0.9
v 0.2 1.7 -0.6
v 0.2 1.7 -0.7
v 0.2 1.7 -0.8
v 0.3 1.5 1.1
v 0.3 1.5 1
v 0.3 1.5 0.9
v 0.3 1.5 -0.6
v 0.3 1.5 -0.7
v 0.3 1.5 -0.8
v 0.3 1.6 1.1
v 0.3 1.6 1
v 0.3 1.6 0.9
v 0.3 1.6 -0.6
v 0.3 1.6 -0.7
v 0.3 1.6 -0.8
v 5.96046e-08 1.6 1.6
v 5.96046e-08 1.7 1.6
v 0.1 1.6 1.6
v 0.1 1.7 1.6
v -0.0999999 1.6 1.5
v -0.0999999 1.7 1.5
v 5.96046e-08 1.6 1.5
v 5.96046e-08 1.7 1.5
v 0.1 1.6 1.5
v 0.1 1.7 1.5
v 0.2 1.6 1.5
v 0.2 1.7 1.5
v 5.96046e-08 1.7 1.3
v 5.96046e-08 1.8 1.3
v 0.1 1.7 1.3
v 0.1 1.8 1.3
v -0.2 1.5 1.1
v -0.2 1.6 1.1
v -0.0999999 1.4 1.1
v -0.0999999 1.5 1.1
v -0.0999999 1.6 1.1
v 5.96046e-08 1.3 1.1
v 5.96046e-08 1.4 1.1
v 5.96046e-08 1.5 1.1
v 0.1 1.3 1.1
v 0.1 1.4 1.1
v 0.1 1.5 1.1
v 0.2 1.4 1.1
v 0.2 1.5 1.1
v 0.2 1.6 1.1
v 0.3 1.5 1.1
v 0.3 1.6 1.1
v -0.2 1.5 -0.6
v -0.2 1.6 -0.6
v -0.0999999 1.4 -0.6
v -0.0999999 1.5 -0.6
v -0.0999999 1.6 -0.6
v -0.0999999 1.7 -0.6
v 5.96046e-08 1.3 -0.6
v 5.96046e-08 1.4 -0.6
v 5.96046e-08 1.5 -0.6
v 5.96046e-08 1.6 -0.6
v 5.96046e-08 1.7 -0.6
v 5.96046e-08 1.8 -0.6
v 0.1 1.3 -0.6
v 0.1 1.4 -0.6
v 0.1 1.5 -0.6
v 0.1 1.6 -0.6
v 0.1 1.7 -0.6
v 0.1 1.8 -0.6
v 0.2 1.4 -0.6
v 0.2 1.5 -0.6
v 0.2 1.6 -0.6
v 0.2 1.7 -0.6
v 0.3 1.5 -0.6
v 0.3 1.6 -0.6
v 5.96046e-08 1.6 1.3
v 5.96046e-08 1.7 1.3
v 0.1 1.6 1.3
v 0.1 1.7 1.3
v -0.2 1.5 0.9
v -0.2 1.6 0.9
v -0.0999999 1.4 0.9
v -0.0999999 1.5 0.9
v -0.0999999 1.6 0.9
v -0.0999999 1.7 0.9
v 5.96046e-08 1.3 0.9
v 5.96046e-08 1.4 0.9
v 5.96046e-08 1.5 0.9
v 5.96046e-08 1.6 0.9
v 5.96046e-08 1.7 0.9
v 5.96046e-08 1.8 0.9
v 0.1 1.3 0.9
v 0.1 1.4 0.9
v 0.1 1.5 0.9
v 0.1 1.6 0.9
v 0.1 1.7 0.9
v 0.1 1.8 0.9
v 0.2 1.4 0.9
v 0.2 1.5 0.9
v 0.2 1.6 0.9
v 0.2 1.7 0.9
v 0.3 1.5 0.9
v 0.3 1.6 0.9
v -0.2 1.5 -0.8
v -0.2 1.6 -0.8
v -0.0999999 1.4 -0.8
v -0.0999999 1.5 -0.8
v -0.0999999 1.6 -0.8
v -0.0999999 1.7 -0.8
v 5.96046e-08 1.3 -0.8
v 5.96046e-08 1.4 -0.8
v 5.96046e-08 1.5 -0.8
v 5.96046e-08 1.6 -0.8
v 5.96046e-08 1.7 -0.8
v 5.96046e-08 1.8 -0.8
v 0.1 1.3 -0.8
v 0.1 1.4 -0.8
v 0.1 1.5 -0.8
v 0.1 1.6 -0.8
v 0.1 1.7 -0.8
v 0.1 1.8 -0.8
v 0.2 1.4 -0.8
v 0.2 1.5 -0.8
v 0.2 1.6 -0.8
v 0.2 1.7 -0.8
v 0.3 1.5 -0.8
v 0.3 1.6 -0.8
v 5.96046e-08 1.3 1.1
v 0.1 1.3 1.1
v 5.96046e-08 1.3 1
v 0.1 1.3 1
v 5.96046e-08 1.3 0.9
v 0.1 1.3 0.9
v 5.96046e-08 1.3 -0.6
v 0.1 1.3 -0.6
v 5.96046e-08 1.3 -0.7
v 0.1 1.3 -0.7
v 5.96046e-08 1.3 -0.8
v 0.1 1.3 -0.8
v -0.0999999 1.4 1.1
v 5.96046e-08 1.4 1.1
v 0.1 1.4 1.1
v 0.2 1.4 1.1
v -0.0999999 1.4 1
v 5.96046e-08 1.4 1
v 0.1 1.4 1
v 0.2 1.4 1
v -0.0999999 1.4 0.9
v 5.96046e-08 1.4 0.9
v 0.1 1.4 0.9
v 0.2 1.4 0.9
v -0.0999999 1.4 -0.6
v 5.96046e-08 1.4 -0.6
v 0.1 1.4 -0.6
v 0.2 1.4 -0.6
v -0.0999999 1.4 -0.7
v 5.96046e-08 1.4 -0.7
v 0.1 1.4 -0.7
v 0.2 1.4 -0.7
v -0.0999999 1.4 -0.8
v 5.96046e-08 1.4 -0.8
v 0.1 1.4 -0.8
v 0.2 1.4 -0.8
v -0.2 1.5 1.1
v -0.0999999 1.5 1.1
v 0.2 1.5 1.1
v 0.3 1.5 1.1
v -0.2 1.5 1
v -0.0999999 1.5 1
v 0.2 1.5 1
v 0.3 1.5 1
v -0.2 1.5 0.9
v -0.0999999 1.5 0.9
v 0.2 1.5 0.9
v 0.3 1.5 0.9
v -0.2 1.5 -0.6
v -0.0999999 1.5 -0.6
v 0.2 1.5 -0.6
v 0.3 1.5 -0.6
v -0.2 1.5 -0.7
v -0.0999999 1.5 -0.7
v 0.2 1.5 -0.7
v 0.3 1.5 -0.7
v -0.2 1.5 -0.8
v -0.0999999 1.5 -0.8
v 0.2 1.5 -0.8
v 0.3 1.5 -0.8
v 5.96046e-08 1.6 1.6
v 0.1 1.6 1.6
v -0.0999999 1.6 1.5
v 5.96046e-08 1.6 1.5
v 0.1 1.6 1.5
v 0.2 1.6 1.5
v 5.96046e-08 1.6 1.4
v 0.1 1.6 1.4
v -0.0999999 1.6 1.3
v 5.96046e-08 1.6 1.3
v 0.1 1.6 1.3
v 0.2 1.6 1.3
v -0.0999999 1.6 1.2
v 5.96046e-08 1.6 1.2
v 0.1 1.6 1.2
v 0.2 1.6 1.2
v -0.0999999 1.6 1.1
v 5.96046e-08 1.6 1.1
v 0.1 1.6 1.1
v 0.2 1.6 1.1
v -0.0999999 1.6 1
v 0.2 1.6 1
v -0.0999999 1.6 0.9
v 5.96046e-08 1.6 0.9
v 0.1 1.6 0.9
v 0.2 1.6 0.9
v -0.0999999 1.6 -0.6
v 5.96046e-08 1.6 -0.6
v 0.1 1.6 -0.6
v 0.2 1.6 -0.6
v -0.0999999 1.6 -0.7
v 5.96046e-08 1.6 -0.7
v 0.1 1.6 -0.7
v 0.2 1.6 -0.7
v -0.0999999 1.6 -0.8
v 5.96046e-08 1.6 -0.8
v 0.1 1.6 -0.8
v 0.2 1.6 -0.8
v 5.96046e-08 1.7 1.3
v 0.1 1.7 1.3
v 5.96046e-08 1.7 1.2
v 0.1 1.7 1.2
v 5.96046e-08 1.7 1.1
v 0.1 1.7 1.1
v 5.96046e-08 1.7 0.9
v 0.1 1.7 0.9
v 5.96046e-08 1.7 -0.6
v 0.1 1.7 -0.6
v 5.96046e-08 1.7 -0.7
v 0.1 1.7 -0.7
v 5.96046e-08 1.7 -0.8
v 0.1 1.7 -0.8
v 5.96046e-08 1.4 1.1
v 0.1 1.4 1.1
v 5.96046e-08 1.4 1
v 0.1 1.4 1
v 5.96046e-08 1.4 0.9
v 0.1 1.4 0.9
v 5.96046e-08 1.4 -0.6
v 0.1 1.4 -0.6
v 5.96046e-08 1.4 -0.7
v 0.1 1.4 -0.7
v 5.96046e-08 1.4 -0.8
v 0.1 1.4 -0.8
v -0.0999999 1.5 1.1
v 5.96046e-08 1.5 1.1
v 0.1 1.5 1.1
v 0.2 1.5 1.1
v -0.0999999 1.5 1
v 5.96046e-08 1.5 1
v 0.1 1.5 1
v 0.2 1.5 1
v -0.0999999 1.5 0.9
v 5.96046e-08 1.5 0.9
v 0.1 1.5 0.9
v 0.2 1.5 0.9
v -0.0999999 1.5 -0.6
v 5.96046e-08 1.5 -0.6
v 0.1 1.5 -0.6
v 0.2 1.5 -0.6
v -0.0999999 1.5 -0.7
v 5.96046e-08 1.5 -0.7
v 0.1 1.5 -0.7
v 0.2 1.5 -0.7
v -0.0999999 1.5 -0.8
v 5.96046e-08 1.5 -0.8
v 0.1 1.5 -0.8
v 0.2 1.5 -0.8
v -0.2 1.6 1.1
v -0.0999999 1.6 1.1
v 0.2 1.6 1.1
v 0.3 1.6 1.1
v -0.2 1.6 1
v -0.0999999 1.6 1
v 0.2 1.6 1
v 0.3 1.6 1
v -0.2 1.6 0.9
v -0.0999999 1.6 0.9
v 0.2 1.6 0.9
v 0.3 1.6 0.9
v -0.2 1.6 -0.6
v -0.0999999 1.6 -0.6
v 0.2 1.6 -0.6
v 0.3 1.6 -0.6
v -0.2 1.6 -0.7
v -0.0999999 1.6 -0.7
v 0.2 1.6 -0.7
v 0.3 1.6 -0.7
v -0.2 1.6 -0.8
v -0.0999999 1.6 -0.8
v 0.2 1.6 -0.8
v 0.3 1.6 -0.8
v 5.96046e-08 1.7 1.6
v 0.1 1.7 1.6
v -0.0999999 1.7 1.5
v 5.96046e-08 1.7 1.5
v 0.1 1.7 1.5
v 0.2 1.7 1.5
v 5.96046e-08 1.7 1.4
v 0.1 1.7 1.4
v -0.0999999 1.7 1.3
v 5.96046e-08 1.7 1.3
v 0.1 1.7 1.3
v 0.2 1.7 1.3
v -0.0999999 1.7 1.2
v 5.96046e-08 1.7 1.2
v 0.1 1.7 1.2
v 0.2 1.7 1.2
v -0.0999999 1.7 1.1
v 5.96046e-08 1.7 1.1
v 0.1 1.7 1.1
v 0.2 1.7 1.1
v -0.0999999 1.7 0.9
v 5.96046e-08 1.7 0.9
v 0.1 1.7 0.9
v 0.2 1.7 0.9
v -0.0999999 1.7 -0.6
v 5.96046e-08 1.7 -0.6
v 0.1 1.7 -0.6
v 0.2 1.7 -0.6
v -0.0999999 1.7 -0.7
v 5.96046e-08 1.7 -0.7
v 0.1 1.7 -0.7
v 0.2 1.7 -0.7
v -0.0999999 1.7 -0.8
v 5.96046e-08 1.7 -0.8
v 0.1 1.7 -0.8
v 0.2 1.7 -0.8
v 5.96046e-08 1.8 1.3
v 0.1 1.8 1.3
v 5.96046e-08 1.8 1.2
v 0.1 1.8 1.2
v 5.96046e-08 1.8 0.9
v 0.1 1.8 0.9
v 5.96046e-08 1.8 -0.6
v 0.1 1.8 -0.6
v 5.96046e-08 1.8 -0.7
v 0.1 1.8 -0.7
v 5.96046e-08 1.8 -0.8
v 0.1 1.8 -0.8

# faces
f 7/3/1 2/3/1 1/3/1
f 8/2/1 3/2/1 2/2/1
f 8/3/1 2/3/1 7/3/1
f 9/2/1 3/2/1 8/2/1
f 10/2/1 5/2/1 4/2/1
f 11/3/1 6/3/1 5/3/1
f 11/2/1 5/2/1 10/2/1
f 12/3/1 6/3/1 11/3/1
f 19/3/1 14/3/1 13/3/1
f 20/2/1 15/2/1 14/2/1
f 20/3/1 14/3/1 19/3/1
f 21/2/1 15/2/1 20/2/1
f 22/2/1 17/2/1 16/2/1
f 23/3/1 18/3/1 17/3/1
f 23/2/1 17/2/1 22/2/1
f 24/3/1 18/3/1 23/3/1
f 34/4/1 26/4/1 25/4/1
f 35/1/1 27/1/1 26/1/1
f 35/4/1 26/4/1 34/4/1
f 36/4/1 28/4/1 27/4/1
f 36/1/1 27/1/1 35/1/1
f 37/2/1 29/2/1 28/2/1
f 37/4/1 28/4/1 36/4/1
f 37/2/1 30/2/1 29/2/1
f 38/2/1 30/2/1 37/2/1
f 39/2/1 32/2/1 31/2/1
f 40/3/1 33/3/1 32/3/1
f 40/2/1 32/2/1 39/2/1
f 41/3/1 33/3/1 40/3/1
f 48/3/1 43/3/1 42/3/1
f 49/2/1 44/2/1 43/2/1
f 49/3/1 43/3/1 48/3/1
f 50/2/1 44/2/1 49/2/1
f 51/2/1 46/2/1 45/2/1
f 52/3/1 47/3/1 46/3/1
f 52/2/1 46/2/1 51/2/1
f 53/3/1 47/3/1 52/3/1
f 56/4/1 55/4/1 54/4/1
f 57/4/1 55/4/1 56/4/1
f 65/4/1 59/4/1 58/4/1
f 66/3/1 60/3/1 59/3/1
f 66/4/1 59/4/1 65/4/1
f 66/3/1 61/3/1 60/3/1
f 67/3/1 61/3/1 66/3/1
f 68/2/1 63/2/1 62/2/1
f 69/3/1 64/3/1 63/3/1
f 69/2/1 63/2/1 68/2/1
f 70/3/1 64/3/1 69/3/1
f 77/3/1 72/3/1 71/3/1
f 78/2/1 73/2/1 72/2/1
f 78/3/1 72/3/1 77/3/1
f 79/2/1 73/2/1 78/2/1
f 80/2/1 75/2/1 74/2/1
f 81/3/1 76/3/1 75/3/1
f 81/2/1 75/2/1 80/2/1
f 82/3/1 76/3/1 81/3/1
f 90/1/1 84/1/1 83/1/1
f 91/4/1 85/4/1 84/4/1
f 91/1/1 84/1/1 90/1/1
f 92/2/1 86/2/1 85/2/1
f 92/4/1 85/4/1 91/4/1
f 93/2/1 86/2/1 92/2/1
f 94/2/1 88/2/1 87/2/1
f 95/3/1 89/3/1 88/3/1
f 95/2/1 88/2/1 94/2/1
f 96/3/1 89/3/1 95/3/1
f 103/3/1 98/3/1 97/3/1
f 104/2/1 99/2/1 98/2/1
f 104/3/1 98/3/1 103/3/1
f 105/2/1 99/2/1 104/2/1
f 106/2/1 101/2/1 100/2/1
f 107/3/1 102/3/1 101/3/1
f 107/2/1 101/2/1 106/2/1
f 108/3/1 102/3/1 107/3/1
f 109/3/2 110/3/2 115/3/2
f 110/2/2 111/2/2 116/2/2
f 115/3/2 110/3/2 116/3/2
f 116/2/2 111/2/2 117/2/2
f 112/2/2 113/2/2 118/2/2
f 113/3/2 114/3/2 119/3/2
f 118/2/2 113/2/2 119/2/2
f 119/3/2 114/3/2 120/3/2
f 121/3/2 122/3/2 127/3/2
f 122/2/2 123/2/2 128/2/2
f 127/3/2 122/3/2 128/3/2
f 128/2/2 123/2/2 129/2/2
f 124/2/2 125/2/2 130/2/2
f 125/3/2 126/3/2 131/3/2
f 130/2/2 125/2/2 131/2/2
f 131/3/2 126/3/2 132/3/2
f 133/1/2 134/1/2 140/1/2
f 134/4/2 135/4/2 141/4/2
f 140/1/2 134/1/2 141/1/2
f 135/2/2 136/2/2 142/2/2
f 141/4/2 135/4/2 142/4/2
f 142/2/2 136/2/2 143/2/2
f 137/2/2 138/2/2 144/2/2
f 138/3/2 139/3/2 145/3/2
f 144/2/2 138/2/2 145/2/2
f 145/3/2 139/3/2 146/3/2
f 147/3/2 148/3/2 153/3/2
f 148/2/2 149/2/2 154/2/2
f 153/3/2 148/3/2 154/3/2
f 154/2/2 149/2/2 155/2/2
f 150/2/2 151/2/2 156/2/2
f 151/3/2 152/3/2 157/3/2
f 156/2/2 151/2/2 157/2/2
f 157/3/2 152/3/2 158/3/2
f 159/4/2 160/4/2 161/4/2
f 161/4/2 160/4/2 162/4/2
f 163/4/2 164/4/2 170/4/2
f 164/3/2 165/3/2 171/3/2
f 170/4/2 164/4/2 171/4/2
f 165/3/2 166/3/2 171/3/2
f 171/3/2 166/3/2 172/3/2
f 167/2/2 168/2/2 173/2/2
f 168/3/2 169/3/2 174/3/2
f 173/2/2 168/2/2 174/2/2
f 174/3/2 169/3/2 175/3/2
f 176/3/2 177/3/2 182/3/2
f 177/2/2 178/2/2 183/2/2
f 182/3/2 177/3/2 183/3/2
f 183/2/2 178/2/2 184/2/2
f 179/2/2 180/2/2 185/2/2
f 180/3/2 181/3/2 186/3/2
f 185/2/2 180/2/2 186/2/2
f 186/3/2 181/3/2 187/3/2
f 188/4/2 189/4/2 197/4/2
f 189/1/2 190/1/2 198/1/2
f 197/4/2 189/4/2 198/4/2
f 190/4/2 191/4/2 199/4/2
f 198/1/2 190/1/2 199/1/2
f 191/2/2 192/2/2 200/2/2
f 199/4/2 191/4/2 200/4/2
f 192/2/2 193/2/2 200/2/2
f 200/2/2 193/2/2 201/2/2
f 194/2/2 195/2/2 202/2/2
f 195/3/2 196/3/2 203/3/2
f 202/2/2 195/2/2 203/2/2
f 203/3/2 196/3/2 204/3/2
f 205/3/2 206/3/2 211/3/2
f 206/2/2 207/2/2 212/2/2
f 211/3/2 206/3/2 212/3/2
f 212/2/2 207/2/2 213/2/2
f 208/2/2 209/2/2 214/2/2
f 209/3/2 210/3/2 215/3/2
f 214/2/2 209/2/2 215/2/2
f 215/3/2 210/3/2 216/3/2
f 219/4/3 218/4/3 217/4/3
f 220/4/3 218/4/3 219/4/3
f 223/4/3 222/4/3 221/4/3
f 224/4/3 222/4/3 223/4/3
f 227/4/3 226/4/3 225/4/3
f 228/4/3 226/4/3 227/4/3
f 231/4/3 230/4/3 229/4/3
f 232/4/3 230/4/3 231/4/3
f 236/3/3 234/3/3 233/3/3
f 237/3/3 234/3/3 236/3/3
f 239/3/3 236/3/3 235/3/3
f 240/3/3 236/3/3 239/3/3
f 241/3/3 239/3/3 238/3/3
f 242/3/3 239/3/3 241/3/3
f 244/3/3 243/3/3 242/3/3
f 245/3/3 243/3/3 244/3/3
f 247/3/3 246/3/3 245/3/3
f 248/3/3 246/3/3 247/3/3
f 252/2/3 250/2/3 249/2/3
f 253/2/3 250/2/3 252/2/3
f 256/2/3 252/2/3 251/2/3
f 257/2/3 252/2/3 256/2/3
f 258/2/3 254/2/3 253/2/3
f 259/2/3 254/2/3 258/2/3
f 261/2/3 256/2/3 255/2/3
f 262/2/3 256/2/3 261/2/3
f 265/2/3 260/2/3 259/2/3
f 266/2/3 260/2/3 265/2/3
f 267/2/3 263/2/3 262/2/3
f 268/2/3 263/2/3 267/2/3
f 269/2/3 265/2/3 264/2/3
f 270/2/3 265/2/3 269/2/3
f 271/2/3 269/2/3 268/2/3
f 272/2/3 269/2/3 271/2/3
f 273/1/4 274/1/4 275/1/4
f 275/1/4 274/1/4 276/1/4
f 277/2/4 278/2/4 280/2/4
f 280/2/4 278/2/4 281/2/4
f 279/2/4 280/2/4 284/2/4
f 284/2/4 280/2/4 285/2/4
f 281/2/4 282/2/4 286/2/4
f 286/2/4 282/2/4 287/2/4
f 283/2/4 284/2/4 289/2/4
f 289/2/4 284/2/4 290/2/4
f 287/3/4 288/3/4 293/3/4
f 293/3/4 288/3/4 294/3/4
f 290/2/4 291/2/4 295/2/4
f 295/2/4 291/2/4 296/2/4
f 292/2/4 293/2/4 297/2/4
f 297/2/4 293/2/4 298/2/4
f 296/2/4 297/2/4 299/2/4
f 299/2/4 297/2/4 300/2/4
f 301/3/4 302/3/4 304/3/4
f 304/3/4 302/3/4 305/3/4
f 303/3/4 304/3/4 308/3/4
f 308/3/4 304/3/4 309/3/4
f 305/3/4 306/3/4 310/3/4
f 310/3/4 306/3/4 311/3/4
f 307/3/4 308/3/4 313/3/4
f 313/3/4 308/3/4 314/3/4
f 311/3/4 312/3/4 317/3/4
f 317/3/4 312/3/4 318/3/4
f 314/3/4 315/3/4 319/3/4
f 319/3/4 315/3/4 320/3/4
f 316/3/4 317/3/4 321/3/4
f 321/3/4 317/3/4 322/3/4
f 320/3/4 321/3/4 323/3/4
f 323/3/4 321/3/4 324/3/4
f 327/3/5 326/3/5 325/3/5
f 328/3/5 326/3/5 327/3/5
f 329/2/5 328/2/5 327/2/5
f 330/2/5 328/2/5 329/2/5
f 333/2/5 332/2/5 331/2/5
f 334/2/5 332/2/5 333/2/5
f 335/3/5 334/3/5 333/3/5
f 336/3/5 334/3/5 335/3/5
f 341/3/5 338/3/5 337/3/5
f 342/3/5 338/3/5 341/3/5
f 343/3/5 340/3/5 339/3/5
f 344/3/5 340/3/5 343/3/5
f 345/2/5 342/2/5 341/2/5
f 346/2/5 342/2/5 345/2/5
f 347/2/5 344/2/5 343/2/5
f 348/2/5 344/2/5 347/2/5
f 353/2/5 350/2/5 349/2/5
f 354/2/5 350/2/5 353/2/5
f 355/2/5 352/2/5 351/2/5
f 356/2/5 352/2/5 355/2/5
f 357/3/5 354/3/5 353/3/5
f 358/3/5 354/3/5 357/3/5
f 359/3/5 356/3/5 355/3/5
f 360/3/5 356/3/5 359/3/5
f 365/3/5 362/3/5 361/3/5
f 366/3/5 362/3/5 365/3/5
f 367/3/5 364/3/5 363/3/5
f 368/3/5 364/3/5 367/3/5
f 369/2/5 366/2/5 365/2/5
f 370/2/5 366/2/5 369/2/5
f 371/2/5 368/2/5 367/2/5
f 372/2/5 368/2/5 371/2/5
f 377/2/5 374/2/5 373/2/5
f 378/2/5 374/2/5 377/2/5
f 379/2/5 376/2/5 375/2/5
f 380/2/5 376/2/5 379/2/5
f 381/3/5 378/3/5 377/3/5
f 382/3/5 378/3/5 381/3/5
f 383/3/5 380/3/5 379/3/5
f 384/3/5 380/3/5 383/3/5
f 388/4/5 386/4/5 385/4/5
f 389/4/5 386/4/5 388/4/5
f 391/4/5 388/4/5 387/4/5
f 391/4/5 390/4/5 389/4/5
f 391/4/5 389/4/5 388/4/5
f 392/4/5 390/4/5 391/4/5
f 393/4/5 391/4/5 387/4/5
f 394/1/5 392/1/5 391/1/5
f 394/4/5 391/4/5 393/4/5
f 395/4/5 390/4/5 392/4/5
f 395/1/5 392/1/5 394/1/5
f 396/4/5 390/4/5 395/4/5
f 397/1/5 394/1/5 393/1/5
f 398/1/5 394/1/5 397/1/5
f 399/1/5 396/1/5 395/1/5
f 400/1/5 396/1/5 399/1/5
f 401/4/5 398/4/5 397/4/5
f 402/4/5 398/4/5 401/4/5
f 403/4/5 400/4/5 399/4/5
f 404/4/5 400/4/5 403/4/5
f 405/2/5 402/2/5 401/2/5
f 406/2/5 404/2/5 403/2/5
f 407/2/5 402/2/5 405/2/5
f 408/2/5 402/2/5 407/2/5
f 409/2/5 406/2/5 403/2/5
f 410/2/5 406/2/5 409/2/5
f 415/2/5 412/2/5 411/2/5
f 416/2/5 412/2/5 415/2/5
f 417/2/5 414/2/5 413/2/5
f 418/2/5 414/2/5 417/2/5
f 419/3/5 416/3/5 415/3/5
f 420/3/5 416/3/5 419/3/5
f 421/3/5 418/3/5 417/3/5
f 422/3/5 418/3/5 421/3/5
f 425/4/5 424/4/5 423/4/5
f 426/4/5 424/4/5 425/4/5
f 427/3/5 426/3/5 425/3/5
f 428/3/5 426/3/5 427/3/5
f 429/3/5 428/3/5 427/3/5
f 430/3/5 428/3/5 429/3/5
f 433/2/5 432/2/5 431/2/5
f 434/2/5 432/2/5 433/2/5
f 435/3/5 434/3/5 433/3/5
f 436/3/5 434/3/5 435/3/5
f 437/3/6 438/3/6 439/3/6
f 439/3/6 438/3/6 440/3/6
f 439/2/6 440/2/6 441/2/6
f 441/2/6 440/2/6 442/2/6
f 443/2/6 444/2/6 445/2/6
f 445/2/6 444/2/6 446/2/6
f 445/3/6 446/3/6 447/3/6
f 447/3/6 446/3/6 448/3/6
f 449/3/6 450/3/6 453/3/6
f 453/3/6 450/3/6 454/3/6
f 451/3/6 452/3/6 455/3/6
f 455/3/6 452/3/6 456/3/6
f 453/2/6 454/2/6 457/2/6
f 457/2/6 454/2/6 458/2/6
f 455/2/6 456/2/6 459/2/6
f 459/2/6 456/2/6 460/2/6
f 461/2/6 462/2/6 465/2/6
f 465/2/6 462/2/6 466/2/6
f 463/2/6 464/2/6 467/2/6
f 467/2/6 464/2/6 468/2/6
f 465/3/6 466/3/6 469/3/6
f 469/3/6 466/3/6 470/3/6
f 467/3/6 468/3/6 471/3/6
f 471/3/6 468/3/6 472/3/6
f 473/3/6 474/3/6 477/3/6
f 477/3/6 474/3/6 478/3/6
f 475/3/6 476/3/6 479/3/6
f 479/3/6 476/3/6 480/3/6
f 477/2/6 478/2/6 481/2/6
f 481/2/6 478/2/6 482/2/6
f 479/2/6 480/2/6 483/2/6
f 483/2/6 480/2/6 484/2/6
f 485/2/6 486/2/6 489/2/6
f 489/2/6 486/2/6 490/2/6
f 487/2/6 488/2/6 491/2/6
f 491/2/6 488/2/6 492/2/6
f 489/3/6 490/3/6 493/3/6
f 493/3/6 490/3/6 494/3/6
f 491/3/6 492/3/6 495/3/6
f 495/3/6 492/3/6 496/3/6
f 497/4/6 498/4/6 500/4/6
f 500/4/6 498/4/6 501/4/6
f 499/4/6 500/4/6 503/4/6
f 501/4/6 502/4/6 503/4/6
f 500/4/6 501/4/6 503/4/6
f 503/4/6 502/4/6 504/4/6
f 499/4/6 503/4/6 505/4/6
f 503/1/6 504/1/6 506/1/6
f 505/4/6 503/4/6 506/4/6
f 504/4/6 502/4/6 507/4/6
f 506/1/6 504/1/6 507/1/6
f 507/4/6 502/4/6 508/4/6
f 505/1/6 506/1/6 509/1/6
f 509/1/6 506/1/6 510/1/6
f 507/1/6 508/1/6 511/1/6
f 511/1/6 508/1/6 512/1/6
f 509/4/6 510/4/6 513/4/6
f 513/4/6 510/4/6 514/4/6
f 511/4/6 512/4/6 515/4/6
f 515/4/6 512/4/6 516/4/6
f 513/2/6 514/2/6 517/2/6
f 517/2/6 514/2/6 518/2/6
f 515/2/6 516/2/6 519/2/6
f 519/2/6 516/2/6 520/2/6
f 521/2/6 522/2/6 525/2/6
f 525/2/6 522/2/6 526/2/6
f 523/2/6 524/2/6 527/2/6
f 527/2/6 524/2/6 528/2/6
f 525/3/6 526/3/6 529/3/6
f 529/3/6 526/3/6 530/3/6
f 527/3/6 528/3/6 531/3/6
f 531/3/6 528/3/6 532/3/6
f 533/4/6 534/4/6 535/4/6
f 535/4/6 534/4/6 536/4/6
f 535/3/6 536/3/6 537/3/6
f 537/3/6 536/3/6 538/3/6
f 539/2/6 540/2/6 541/2/6
f 541/2/6 540/2/6 542/2/6
f 541/3/6 542/3/6 543/3/6
f 543/3/6 542/3/6 544/3/6
